<svg width="16" height="16" viewBox="0 0 16 16" fill="none" xmlns="http://www.w3.org/2000/svg">
<g clip-path="url(#clip0_1_886)">
<path d="M14.5267 0.666626H1.47335C1.02669 0.666626 0.666687 1.02663 0.666687 1.47329V14.52C0.666687 14.9733 1.02669 15.3333 1.47335 15.3333H8.50002V9.65996H6.60002V7.43996H8.50669V5.80663C8.50669 3.91329 9.66669 2.87996 11.3534 2.87996C11.92 2.87996 12.4934 2.90663 13.06 2.96663V4.94663H11.8934C10.9734 4.94663 10.7934 5.37996 10.7934 6.02663V7.43996H12.9934L12.7067 9.65996H10.78V15.3333H14.52C14.9667 15.3333 15.3267 14.9733 15.3267 14.5266V1.47329C15.3334 1.02663 14.9734 0.666626 14.5267 0.666626Z" fill="white"/>
</g>
<defs>
<clipPath id="clip0_1_886">
<rect width="16" height="16" fill="white"/>
</clipPath>
</defs>
</svg>
