<svg width="136" height="40" viewBox="0 0 136 40" fill="none" xmlns="http://www.w3.org/2000/svg">
<g clip-path="url(#clip0_1_906)">
<path d="M130.3 40H5.29999C2.49999 40 0.299988 37.8 0.299988 35V5C0.299988 2.2 2.49999 0 5.29999 0H130.3C133.1 0 135.3 2.2 135.3 5V35C135.3 37.8 133.1 40 130.3 40Z" fill="black"/>
<path d="M130.3 0.8C132.6 0.8 134.5 2.7 134.5 5V35C134.5 37.3 132.6 39.2 130.3 39.2H5.29999C2.99999 39.2 1.09999 37.3 1.09999 35V5C1.09999 2.7 2.99999 0.8 5.29999 0.8H130.3ZM130.3 0H5.29999C2.49999 0 0.299988 2.3 0.299988 5V35C0.299988 37.8 2.49999 40 5.29999 40H130.3C133.1 40 135.3 37.8 135.3 35V5C135.3 2.3 133.1 0 130.3 0Z" fill="#898989"/>
<path d="M47.7 10.2C47.7 11 47.5 11.7 47 12.2C46.4 12.8 45.7 13.1 44.8 13.1C43.9 13.1 43.2 12.8 42.6 12.2C42 11.6 41.7 10.9 41.7 10C41.7 9.10002 42 8.40002 42.6 7.80002C43.2 7.20002 43.9 6.90002 44.8 6.90002C45.2 6.90002 45.6 7.00002 46 7.20002C46.4 7.40002 46.7 7.60002 46.9 7.90002L46.4 8.40002C46 7.90002 45.5 7.70002 44.8 7.70002C44.2 7.70002 43.6 7.90002 43.2 8.40002C42.7 8.80002 42.5 9.40002 42.5 10.1C42.5 10.8 42.7 11.4 43.2 11.8C43.7 12.2 44.2 12.5 44.8 12.5C45.5 12.5 46 12.3 46.5 11.8C46.8 11.5 47 11.1 47 10.6H44.8V9.80002H47.7V10.2V10.2ZM52.3 7.70002H49.6V9.60002H52.1V10.3H49.6V12.2H52.3V13H48.8V7.00002H52.3V7.70002ZM55.6 13H54.8V7.70002H53.1V7.00002H57.3V7.70002H55.6V13ZM60.2 13V7.00002H61V13H60.2ZM64.4 13H63.6V7.70002H61.9V7.00002H66V7.70002H64.3L64.4 13ZM73.9 12.2C73.3 12.8 72.6 13.1 71.7 13.1C70.8 13.1 70.1 12.8 69.5 12.2C68.9 11.6 68.6 10.9 68.6 10C68.6 9.10002 68.9 8.40002 69.5 7.80002C70.1 7.20002 70.8 6.90002 71.7 6.90002C72.6 6.90002 73.3 7.20002 73.9 7.80002C74.5 8.40002 74.8 9.10002 74.8 10C74.8 10.9 74.5 11.6 73.9 12.2ZM70.1 11.7C70.5 12.1 71.1 12.4 71.7 12.4C72.3 12.4 72.9 12.2 73.3 11.7C73.7 11.3 74 10.7 74 10C74 9.30002 73.8 8.70002 73.3 8.30002C72.9 7.90002 72.3 7.60002 71.7 7.60002C71.1 7.60002 70.5 7.80002 70.1 8.30002C69.7 8.70002 69.4 9.30002 69.4 10C69.4 10.7 69.6 11.3 70.1 11.7ZM75.9 13V7.00002H76.8L79.7 11.7V7.00002H80.5V13H79.7L76.6 8.10002V13H75.9V13Z" fill="white" stroke="white" stroke-width="0.2" stroke-miterlimit="10"/>
<mask id="path-4-inside-1_1_906" fill="white">
<path d="M68.4 21.8C66 21.8 64.1 23.6 64.1 26.1C64.1 28.5 66 30.4 68.4 30.4C70.8 30.4 72.7 28.6 72.7 26.1C72.7 23.5 70.8 21.8 68.4 21.8ZM68.4 28.6C67.1 28.6 66 27.5 66 26C66 24.5 67.1 23.4 68.4 23.4C69.7 23.4 70.8 24.4 70.8 26C70.8 27.5 69.7 28.6 68.4 28.6ZM59.1 21.8C56.7 21.8 54.8 23.6 54.8 26.1C54.8 28.5 56.7 30.4 59.1 30.4C61.5 30.4 63.4 28.6 63.4 26.1C63.4 23.5 61.5 21.8 59.1 21.8ZM59.1 28.6C57.8 28.6 56.7 27.5 56.7 26C56.7 24.5 57.8 23.4 59.1 23.4C60.4 23.4 61.5 24.4 61.5 26C61.5 27.5 60.4 28.6 59.1 28.6ZM48 23.1V24.9H52.3C52.2 25.9 51.8 26.7 51.3 27.2C50.7 27.8 49.7 28.5 48 28.5C45.3 28.5 43.3 26.4 43.3 23.7C43.3 21 45.4 18.9 48 18.9C49.4 18.9 50.5 19.5 51.3 20.2L52.6 18.9C51.5 17.9 50.1 17.1 48.1 17.1C44.5 17.1 41.4 20.1 41.4 23.7C41.4 27.3 44.5 30.3 48.1 30.3C50.1 30.3 51.5 29.7 52.7 28.4C53.9 27.2 54.3 25.5 54.3 24.2C54.3 23.8 54.3 23.4 54.2 23.1H48V23.1ZM93.4 24.5C93 23.5 92 21.8 89.8 21.8C87.6 21.8 85.8 23.5 85.8 26.1C85.8 28.5 87.6 30.4 90 30.4C91.9 30.4 93.1 29.2 93.5 28.5L92.1 27.5C91.6 28.2 91 28.7 90 28.7C89 28.7 88.4 28.3 87.9 27.4L93.6 25L93.4 24.5V24.5ZM87.6 25.9C87.6 24.3 88.9 23.4 89.8 23.4C90.5 23.4 91.2 23.8 91.4 24.3L87.6 25.9ZM82.9 30H84.8V17.5H82.9V30ZM79.9 22.7C79.4 22.2 78.6 21.7 77.6 21.7C75.5 21.7 73.5 23.6 73.5 26C73.5 28.4 75.4 30.2 77.6 30.2C78.6 30.2 79.4 29.7 79.8 29.2H79.9V29.8C79.9 31.4 79 32.3 77.6 32.3C76.5 32.3 75.7 31.5 75.5 30.8L73.9 31.5C74.4 32.6 75.6 34 77.7 34C79.9 34 81.7 32.7 81.7 29.6V22H79.9V22.7V22.7ZM77.7 28.6C76.4 28.6 75.3 27.5 75.3 26C75.3 24.5 76.4 23.4 77.7 23.4C79 23.4 80 24.5 80 26C80 27.5 79 28.6 77.7 28.6ZM102.1 17.5H97.6V30H99.5V25.3H102.1C104.2 25.3 106.2 23.8 106.2 21.4C106.2 19 104.2 17.5 102.1 17.5V17.5ZM102.2 23.5H99.5V19.2H102.2C103.6 19.2 104.4 20.4 104.4 21.3C104.3 22.4 103.5 23.5 102.2 23.5ZM113.7 21.7C112.3 21.7 110.9 22.3 110.4 23.6L112.1 24.3C112.5 23.6 113.1 23.4 113.8 23.4C114.8 23.4 115.7 24 115.8 25V25.1C115.5 24.9 114.7 24.6 113.9 24.6C112.1 24.6 110.3 25.6 110.3 27.4C110.3 29.1 111.8 30.2 113.4 30.2C114.7 30.2 115.3 29.6 115.8 29H115.9V30H117.7V25.2C117.5 23 115.8 21.7 113.7 21.7V21.7ZM113.5 28.6C112.9 28.6 112 28.3 112 27.5C112 26.5 113.1 26.2 114 26.2C114.8 26.2 115.2 26.4 115.7 26.6C115.5 27.8 114.5 28.6 113.5 28.6V28.6ZM124 22L121.9 27.4H121.8L119.6 22H117.6L120.9 29.6L119 33.8H120.9L126 22H124V22ZM107.2 30H109.1V17.5H107.2V30Z"/>
</mask>
<path d="M68.4 21.8C66 21.8 64.1 23.6 64.1 26.1C64.1 28.5 66 30.4 68.4 30.4C70.8 30.4 72.7 28.6 72.7 26.1C72.7 23.5 70.8 21.8 68.4 21.8ZM68.4 28.6C67.1 28.6 66 27.5 66 26C66 24.5 67.1 23.4 68.4 23.4C69.7 23.4 70.8 24.4 70.8 26C70.8 27.5 69.7 28.6 68.4 28.6ZM59.1 21.8C56.7 21.8 54.8 23.6 54.8 26.1C54.8 28.5 56.7 30.4 59.1 30.4C61.5 30.4 63.4 28.6 63.4 26.1C63.4 23.5 61.5 21.8 59.1 21.8ZM59.1 28.6C57.8 28.6 56.7 27.5 56.7 26C56.7 24.5 57.8 23.4 59.1 23.4C60.4 23.4 61.5 24.4 61.5 26C61.5 27.5 60.4 28.6 59.1 28.6ZM48 23.1V24.9H52.3C52.2 25.9 51.8 26.7 51.3 27.2C50.7 27.8 49.7 28.5 48 28.5C45.3 28.5 43.3 26.4 43.3 23.7C43.3 21 45.4 18.9 48 18.9C49.4 18.9 50.5 19.5 51.3 20.2L52.6 18.9C51.5 17.9 50.1 17.1 48.1 17.1C44.5 17.1 41.4 20.1 41.4 23.7C41.4 27.3 44.5 30.3 48.1 30.3C50.1 30.3 51.5 29.7 52.7 28.4C53.9 27.2 54.3 25.5 54.3 24.2C54.3 23.8 54.3 23.4 54.2 23.1H48V23.1ZM93.4 24.5C93 23.5 92 21.8 89.8 21.8C87.6 21.8 85.8 23.5 85.8 26.1C85.8 28.5 87.6 30.4 90 30.4C91.9 30.4 93.1 29.2 93.5 28.5L92.1 27.5C91.6 28.2 91 28.7 90 28.7C89 28.7 88.4 28.3 87.9 27.4L93.6 25L93.4 24.5V24.5ZM87.6 25.9C87.6 24.3 88.9 23.4 89.8 23.4C90.5 23.4 91.2 23.8 91.4 24.3L87.6 25.9ZM82.9 30H84.8V17.5H82.9V30ZM79.9 22.7C79.4 22.2 78.6 21.7 77.6 21.7C75.5 21.7 73.5 23.6 73.5 26C73.5 28.4 75.4 30.2 77.6 30.2C78.6 30.2 79.4 29.7 79.8 29.2H79.9V29.8C79.9 31.4 79 32.3 77.6 32.3C76.5 32.3 75.7 31.5 75.5 30.8L73.9 31.5C74.4 32.6 75.6 34 77.7 34C79.9 34 81.7 32.7 81.7 29.6V22H79.9V22.7V22.7ZM77.7 28.6C76.4 28.6 75.3 27.5 75.3 26C75.3 24.5 76.4 23.4 77.7 23.4C79 23.4 80 24.5 80 26C80 27.5 79 28.6 77.7 28.6ZM102.1 17.5H97.6V30H99.5V25.3H102.1C104.2 25.3 106.2 23.8 106.2 21.4C106.2 19 104.2 17.5 102.1 17.5V17.5ZM102.2 23.5H99.5V19.2H102.2C103.6 19.2 104.4 20.4 104.4 21.3C104.3 22.4 103.5 23.5 102.2 23.5ZM113.7 21.7C112.3 21.7 110.9 22.3 110.4 23.6L112.1 24.3C112.5 23.6 113.1 23.4 113.8 23.4C114.8 23.4 115.7 24 115.8 25V25.1C115.5 24.9 114.7 24.6 113.9 24.6C112.1 24.6 110.3 25.6 110.3 27.4C110.3 29.1 111.8 30.2 113.4 30.2C114.7 30.2 115.3 29.6 115.8 29H115.9V30H117.7V25.2C117.5 23 115.8 21.7 113.7 21.7V21.7ZM113.5 28.6C112.9 28.6 112 28.3 112 27.5C112 26.5 113.1 26.2 114 26.2C114.8 26.2 115.2 26.4 115.7 26.6C115.5 27.8 114.5 28.6 113.5 28.6V28.6ZM124 22L121.9 27.4H121.8L119.6 22H117.6L120.9 29.6L119 33.8H120.9L126 22H124V22ZM107.2 30H109.1V17.5H107.2V30Z" fill="white" stroke="white" stroke-width="2" mask="url(#path-4-inside-1_1_906)"/>
<path d="M10.7 7.5C10.4 7.8 10.3 8.3 10.3 8.9V31C10.3 31.6 10.5 32.1 10.8 32.4L10.9 32.5L23.3 20.1V19.9L10.7 7.5Z" fill="url(#paint0_linear_1_906)"/>
<path d="M27.3 24.3L23.2 20.2V19.9L27.3 15.8L27.4 15.9L32.3 18.7C33.7 19.5 33.7 20.8 32.3 21.6L27.3 24.3Z" fill="url(#paint1_linear_1_906)"/>
<path d="M27.4 24.2L23.2 20L10.7 32.5C11.2 33 11.9 33 12.8 32.6L27.4 24.2" fill="url(#paint2_linear_1_906)"/>
<path d="M27.4 15.8L12.8 7.49999C11.9 6.99999 11.2 7.09999 10.7 7.59999L23.2 20L27.4 15.8V15.8Z" fill="url(#paint3_linear_1_906)"/>
<path opacity="0.2" d="M27.3 24.1L12.8 32.3C12 32.8 11.3 32.7 10.8 32.3L10.7 32.4L10.8 32.5C11.3 32.9 12 33 12.8 32.5L27.3 24.1Z" fill="black"/>
<path opacity="0.12" d="M10.7 32.3C10.4 32 10.3 31.5 10.3 30.9V31C10.3 31.6 10.5 32.1 10.8 32.4V32.3H10.7ZM32.3 21.3L27.3 24.1L27.4 24.2L32.3 21.4C33 21 33.3 20.5 33.3 20C33.3 20.5 32.9 20.9 32.3 21.3V21.3Z" fill="black"/>
<path opacity="0.25" d="M12.8 7.60005L32.3 18.7C32.9 19.1 33.3 19.5 33.3 20C33.3 19.5 33 19 32.3 18.6L12.8 7.60005C11.4 6.70005 10.3 7.30005 10.3 8.90005V9.00005C10.3 7.50005 11.4 6.80005 12.8 7.60005Z" fill="white"/>
</g>
<defs>
<linearGradient id="paint0_linear_1_906" x1="22.095" y1="8.705" x2="5.31199" y2="25.487" gradientUnits="userSpaceOnUse">
<stop stop-color="#00A0FF"/>
<stop offset="0.007" stop-color="#00A1FF"/>
<stop offset="0.26" stop-color="#00BEFF"/>
<stop offset="0.512" stop-color="#00D2FF"/>
<stop offset="0.76" stop-color="#00DFFF"/>
<stop offset="1" stop-color="#00E3FF"/>
</linearGradient>
<linearGradient id="paint1_linear_1_906" x1="34.134" y1="20.05" x2="9.93698" y2="20.05" gradientUnits="userSpaceOnUse">
<stop stop-color="#FFE000"/>
<stop offset="0.409" stop-color="#FFBD00"/>
<stop offset="0.775" stop-color="#FFA500"/>
<stop offset="1" stop-color="#FF9C00"/>
</linearGradient>
<linearGradient id="paint2_linear_1_906" x1="25.116" y1="22.285" x2="2.35798" y2="45.043" gradientUnits="userSpaceOnUse">
<stop stop-color="#FF3A44"/>
<stop offset="1" stop-color="#C31162"/>
</linearGradient>
<linearGradient id="paint3_linear_1_906" x1="7.56098" y1="0.21199" x2="17.724" y2="10.375" gradientUnits="userSpaceOnUse">
<stop stop-color="#32A071"/>
<stop offset="0.069" stop-color="#2DA771"/>
<stop offset="0.476" stop-color="#15CF74"/>
<stop offset="0.801" stop-color="#06E775"/>
<stop offset="1" stop-color="#00F076"/>
</linearGradient>
<clipPath id="clip0_1_906">
<rect width="135" height="40" fill="white" transform="translate(0.299988)"/>
</clipPath>
</defs>
</svg>
