<svg width="120" height="40" viewBox="0 0 120 40" fill="none" xmlns="http://www.w3.org/2000/svg">
<g clip-path="url(#clip0_1_918)">
<path d="M110.4 0H7.79999C7.09999 0 6.49999 0.1 5.79999 0.2C5.19999 0.3 4.49999 0.5 3.89999 0.8C3.29999 1.1 2.79999 1.5 2.29999 2C1.79999 2.5 1.39999 3 1.09999 3.6C0.799988 4.2 0.599988 4.9 0.499988 5.5C0.399988 6.2 0.299988 6.9 0.299988 7.5V32.4C0.299988 33.1 0.399988 33.7 0.499988 34.4C0.599988 35.1 0.799988 35.7 1.09999 36.3C1.39999 37 1.79999 37.5 2.29999 38C2.79999 38.5 3.29999 38.9 3.89999 39.2C4.49999 39.5 5.09999 39.7 5.79999 39.8C6.49999 39.9 7.09999 40 7.79999 40H112.4C113.1 40 113.7 39.9 114.4 39.8C115.1 39.7 115.7 39.5 116.3 39.2C116.9 38.9 117.4 38.5 117.9 38C118.4 37.5 118.8 37 119.1 36.4C119.4 35.8 119.6 35.2 119.7 34.5C119.8 33.8 119.9 33.2 119.9 32.5V31.6V9.5V8.4V7.5C119.9 6.8 119.8 6.2 119.7 5.5C119.6 4.8 119.4 4.2 119.1 3.6C118.5 2.4 117.5 1.4 116.3 0.8C115.7 0.5 115.1 0.3 114.4 0.2C113.7 0.1 113.1 0 112.4 0H110.4V0Z" fill="#898989"/>
<path d="M8.69998 39.1H7.79998C7.19998 39.1 6.49998 39 5.89998 38.9C5.29998 38.8 4.79998 38.6 4.19998 38.4C3.69998 38.1 3.19998 37.8 2.79998 37.4C2.39998 37 1.99998 36.5 1.79998 36C1.49998 35.5 1.39998 34.9 1.29998 34.3C1.19998 33.7 1.09998 33.1 1.09998 32.4V8.40002V7.50002C1.09998 6.90002 1.19998 6.20002 1.29998 5.60002C1.39998 5.10002 1.59998 4.50002 1.89998 4.00002C2.19998 3.50002 2.49998 3.00002 2.89998 2.60002C3.29998 2.20002 3.79998 1.90002 4.29998 1.60002C4.79998 1.30002 5.39998 1.20002 5.99998 1.10002C6.59998 1.00002 7.19998 0.900024 7.89998 0.900024H112.5C113.1 0.900024 113.7 1.00002 114.4 1.10002C115 1.20002 115.5 1.40002 116.1 1.60002C117.1 2.10002 118 3.00002 118.5 4.00002C118.8 4.50002 118.9 5.10002 119 5.60002C119.1 6.20002 119.2 6.90002 119.2 7.50002V32.4C119.2 33 119.1 33.6 119 34.3C118.9 34.9 118.7 35.4 118.5 36C118.2 36.5 117.9 37 117.5 37.4C117.1 37.8 116.6 38.2 116.1 38.4C115.6 38.7 115 38.9 114.4 38.9C113.8 39 113.2 39.1 112.5 39.1H8.69998Z" fill="black"/>
<path d="M25.1 20.3C25.1 18.6 26 17 27.5 16.1C26.6 14.8 25.1 14 23.5 13.9C21.8 13.7 20.2 14.9 19.3 14.9C18.4 14.9 17.1 13.9 15.7 13.9C13.8 14 12.1 15 11.2 16.6C9.29998 19.9 10.7 24.9 12.6 27.6C13.5 28.9 14.6 30.4 16 30.4C17.4 30.3 17.9 29.5 19.6 29.5C21.3 29.5 21.7 30.4 23.2 30.4C24.7 30.4 25.6 29.1 26.5 27.7C27.2 26.8 27.7 25.7 28 24.6C26.2 24 25.1 22.2 25.1 20.3V20.3ZM22.3 12.2C23.1 11.2 23.5 9.99995 23.4 8.69995C22.2 8.79995 21 9.39995 20.2 10.4C19.4 11.3 19 12.5 19.1 13.8C20.4 13.8 21.5 13.2 22.3 12.2ZM42.6 27.1H37.9L36.8 30.5H34.8L39.3 18.1H41.3L45.8 30.5H43.8L42.6 27.1ZM38.4 25.6H42.2L40.3 20.1H40.2L38.4 25.6V25.6ZM55.5 26C55.5 28.8 54 30.6 51.7 30.6C50.5 30.7 49.4 30 48.9 29V33.5H47V21.5H48.8V23C49.4 22 50.5 21.4 51.7 21.4C53.9 21.3 55.5 23.2 55.5 26ZM53.5 26C53.5 24.2 52.6 23 51.1 23C49.7 23 48.7 24.2 48.7 26C48.7 27.8 49.7 29 51.1 29C52.6 29 53.5 27.8 53.5 26ZM65.4 26C65.4 28.8 63.9 30.6 61.6 30.6C60.4 30.7 59.3 30 58.8 29V33.5H56.9V21.5H58.7V23C59.3 22 60.4 21.4 61.6 21.4C63.9 21.3 65.4 23.2 65.4 26ZM63.5 26C63.5 24.2 62.6 23 61.1 23C59.7 23 58.7 24.2 58.7 26C58.7 27.8 59.7 29 61.1 29C62.6 29 63.5 27.8 63.5 26ZM72 27C72.1 28.2 73.3 29 75 29C76.6 29 77.7 28.2 77.7 27.1C77.7 26.1 77 25.6 75.4 25.2L73.8 24.7999C71.5 24.2999 70.5 23.2 70.5 21.5C70.5 19.4 72.4 17.9 75 17.9C77.6 17.9 79.4 19.4 79.5 21.5H77.6C77.5 20.3 76.5 19.5 75 19.5C73.5 19.5 72.5 20.3 72.5 21.4C72.5 22.3 73.2 22.8 74.8 23.2L76.2 23.5C78.7 24.1 79.8 25.1 79.8 26.9C79.8 29.2 78 30.7 75 30.7C72.2 30.7 70.4 29.3 70.3 27H72V27ZM83.6 19.3V21.4H85.3V22.9H83.6V27.9C83.6 28.7 83.9 29 84.7 29H85.3V30.5C85 30.6 84.6 30.6 84.3 30.6C82.5 30.6 81.8 29.9 81.8 28.2V23H80.5V21.5H81.8V19.4H83.6V19.3ZM86.4 26C86.4 23.2 88.1 21.4 90.7 21.4C93.3 21.4 95 23.2 95 26C95 28.9 93.3 30.6 90.7 30.6C88 30.6 86.4 28.8 86.4 26ZM93.1 26C93.1 24 92.2 22.9 90.7 22.9C89.2 22.9 88.3 24 88.3 26C88.3 28 89.2 29.1 90.7 29.1C92.2 29.1 93.1 27.9 93.1 26V26ZM96.5 21.4H98.3V23C98.5 22 99.5 21.3 100.5 21.4C100.7 21.4 100.9 21.4 101.1 21.5V23.2C100.8 23.1 100.5 23.1 100.3 23.1C99.3 23.1 98.4 23.9 98.4 24.9V30.6H96.5V21.4ZM109.7 27.7999C109.5 29.3999 107.9 30.6 105.8 30.6C103.2 30.6 101.5 28.8 101.5 26C101.5 23.2 103.1 21.3 105.7 21.3C108.2 21.3 109.8 22.9999 109.8 25.7999V26.4H103.4V26.5C103.3 27.8 104.2 28.9 105.5 29.1H105.8C106.7 29.2 107.6 28.6999 107.9 27.7999H109.7V27.7999ZM103.4 25.1H107.9C108 23.9 107 22.9 105.8 22.8H105.6C104.4 22.8 103.4 23.8 103.4 25.1Z" fill="white"/>
<path d="M38.1 8.70002C39.6 8.60002 40.8 9.70003 40.9 11.1V11.6C40.9 13.5 39.9 14.6 38.1 14.6H35.9V8.60003L38.1 8.70002ZM36.9 13.9H38C39 14 39.9 13.2 40 12.1V11.7C40.1 10.7 39.4 9.70003 38.4 9.60003H36.9V13.9ZM42 12.4C41.9 11.2 42.8 10.2 43.9 10.1C45.1 10 46.1 10.9 46.2 12V12.4C46.3 13.6 45.5 14.6 44.3 14.7C43.1 14.8 42.1 14 42 12.8V12.4ZM45.3 12.4C45.3 11.4 44.9 10.9 44.1 10.9C43.3 10.9 42.9 11.5 42.9 12.4C42.9 13.4 43.3 14 44.1 14C44.9 14 45.3 13.4 45.3 12.4ZM51.9 14.7H51L50.1 11.4H50L49.1 14.7H48.2L47 10.2H47.9L48.7 13.6H48.8L49.7 10.2H50.6L51.5 13.6H51.6L52.4 10.2H53.3L51.9 14.7V14.7ZM54.2 10.2H55.1V10.9H55.2C55.4 10.4 56 10.1 56.5 10.1C57.3 10 58 10.6 58.1 11.5V14.7H57.2V12C57.2 11.3 56.9 10.9 56.2 10.9C55.6 10.9 55.1 11.3 55.1 11.9V14.7H54.2V10.2ZM59.4 8.40002H60.3V14.7H59.4V8.40002V8.40002ZM61.5 12.4C61.4 11.2 62.2 10.2 63.4 10.1C64.6 10 65.6 10.8 65.7 12V12.4C65.8 13.6 65 14.6 63.8 14.7C62.6 14.8 61.6 14 61.5 12.8V12.4ZM64.9 12.4C64.9 11.4 64.5 10.9 63.7 10.9C62.9 10.9 62.5 11.5 62.5 12.4C62.5 13.4 62.9 14 63.7 14C64.4 14 64.9 13.4 64.9 12.4ZM66.7 13.4C66.7 12.6 67.3 12.1 68.4 12.1L69.6 12V11.6C69.6 11.1 69.3 10.9 68.7 10.9C68.2 10.9 67.9 11.1 67.8 11.4H66.9C67 10.6 67.7 10.1 68.7 10.1C69.8 10.1 70.5 10.7 70.5 11.6V14.7H69.6V14.1H69.5C69.2 14.6 68.7 14.8 68.1 14.8C67.4 14.9 66.7 14.3 66.6 13.6C66.7 13.5 66.7 13.5 66.7 13.4V13.4ZM69.6 13V12.6L68.5 12.7C67.9 12.7 67.6 13 67.6 13.3C67.6 13.7 68 13.9 68.4 13.9C69 14.1 69.5 13.7 69.6 13C69.6 13.1 69.6 13.1 69.6 13V13ZM71.6 12.4C71.6 11 72.3 10.1 73.5 10.1C74.1 10.1 74.6 10.4 74.9 10.9H75V8.40002H75.9V14.7H75V14H74.9C74.6 14.5 74.1 14.8 73.5 14.8C72.4 14.8 71.6 13.9 71.6 12.4V12.4ZM72.6 12.4C72.6 13.4 73 13.9 73.8 13.9C74.6 13.9 75 13.3 75 12.4C75 11.5 74.5 10.9 73.8 10.9C73 10.9 72.6 11.5 72.6 12.4ZM79.5 12.4C79.4 11.2 80.2 10.2 81.4 10.1C82.6 10 83.6 10.8 83.7 12V12.4C83.8 13.6 83 14.6 81.8 14.7C80.6 14.8 79.6 14 79.5 12.8V12.4ZM82.9 12.4C82.9 11.4 82.5 10.9 81.7 10.9C80.9 10.9 80.5 11.5 80.5 12.4C80.5 13.4 80.9 14 81.7 14C82.4 14 82.9 13.4 82.9 12.4ZM85 10.2H85.9V10.9H86C86.2 10.4 86.8 10.1 87.3 10.1C88.1 10 88.8 10.6 88.9 11.5V14.7H88V12C88 11.3 87.7 10.9 87 10.9C86.4 10.9 85.9 11.3 85.9 11.9V14.7H85V10.2V10.2ZM93.8 9.10003V10.2H94.8V11H93.8V13.3C93.8 13.8 94 14 94.4 14H94.7V14.7H94.2C93.2 14.7 92.8 14.4 92.8 13.5V11H92.1V10.3H92.8V9.10003H93.8V9.10003ZM96 8.40002H96.9V10.9H97C97.2 10.4 97.8 10 98.4 10.1C99.2 10.1 99.9 10.7 100 11.5V14.7H99.1V12C99.1 11.3 98.8 10.9 98.1 10.9C97.5 10.9 97 11.3 97 11.9V14.7H96.1V8.40002H96ZM105.1 13.5C104.9 14.3 104 14.9 103.2 14.8C102.1 14.8 101.1 13.9 101.1 12.8V12.5C100.9 11.4 101.7 10.3 102.9 10.2H103.2C104.5 10.2 105.2 11.1 105.2 12.5V12.8H102V12.9C101.9 13.6 102.4 14.1 103.1 14.2H103.2C103.6 14.3 104.1 14 104.3 13.7H105.1V13.5ZM101.9 12H104.2C104.2 11.4 103.8 10.9 103.2 10.8H103.1C102.5 10.9 101.9 11.4 101.9 12Z" fill="white"/>
</g>
<defs>
<clipPath id="clip0_1_918">
<rect width="119.7" height="40" fill="white" transform="translate(0.299988)"/>
</clipPath>
</defs>
</svg>
