<svg width="16" height="16" viewBox="0 0 16 16" fill="none" xmlns="http://www.w3.org/2000/svg">
<g clip-path="url(#clip0_1_890)">
<path d="M14.1 1.89998C12.7 0.493318 10.82 0.666651 7.99998 0.666651C5.35998 0.666651 3.33332 0.459985 1.89998 1.89998C0.493318 3.29998 0.666651 5.17998 0.666651 7.99998C0.666651 10.6333 0.459985 12.6667 1.89998 14.1C3.29998 15.5067 5.17998 15.3333 7.99998 15.3333C10.64 15.3333 12.6667 15.54 14.1 14.1C15.5 12.7 15.3333 10.82 15.3333 7.99998C15.3333 5.12665 15.4933 3.28665 14.1 1.89998V1.89998ZM13.1667 13.1667C12.2533 14.08 11.0467 14.0133 7.99998 14.0133C5.13998 14.0133 3.77332 14.1133 2.83332 13.1667C1.87332 12.2067 1.98665 10.8267 1.98665 7.99998C1.98665 5.17998 1.88665 3.77998 2.83332 2.83332C3.77332 1.89332 5.06665 1.98665 7.99998 1.98665C10.82 1.98665 12.22 1.88665 13.1667 2.83332C14.0867 3.75332 14.0133 4.97998 14.0133 7.99998C14.0133 10.8267 14.1133 12.2267 13.1667 13.1667Z" fill="white"/>
<path d="M7.99997 4.23333C7.0009 4.23342 6.04279 4.63038 5.3364 5.3369C4.63001 6.04341 4.23322 7.00159 4.23331 8.00067C4.2334 8.99974 4.63036 9.95785 5.33687 10.6642C6.04338 11.3706 7.00157 11.7674 8.00064 11.7673C8.99971 11.7672 9.95783 11.3703 10.6642 10.6638C11.3706 9.95726 11.7674 8.99907 11.7673 8C11.7672 7.00093 11.3703 6.04281 10.6637 5.33642C9.95723 4.63004 8.99904 4.23324 7.99997 4.23333V4.23333ZM7.99997 10.4467C6.65331 10.4467 5.55331 9.35333 5.55331 8C5.55331 6.64667 6.64664 5.55333 7.99997 5.55333C9.35331 5.55333 10.4466 6.64667 10.4466 8C10.4466 9.34667 9.34664 10.4467 7.99997 10.4467ZM11.9133 3.20667C11.4266 3.20667 11.0333 3.6 11.0333 4.08667C11.0333 4.57333 11.4266 4.96667 11.9133 4.96667C12.4 4.96667 12.7933 4.57333 12.7933 4.08667C12.7933 3.6 12.4 3.20667 11.9133 3.20667Z" fill="white"/>
</g>
<defs>
<clipPath id="clip0_1_890">
<rect width="16" height="16" fill="white"/>
</clipPath>
</defs>
</svg>
