<svg width="16" height="16" viewBox="0 0 16 16" fill="none" xmlns="http://www.w3.org/2000/svg">
<path d="M15.3333 7.99996C15.3333 7.99996 15.3333 5.43329 15.0267 4.27996C14.86 3.64663 14.36 3.14663 13.7333 2.97329C12.5867 2.66663 7.99999 2.66663 7.99999 2.66663C7.99999 2.66663 3.41332 2.66663 2.26666 2.97329C1.63332 3.13996 1.13999 3.64663 0.973323 4.27996C0.666657 5.43329 0.666656 7.99996 0.666656 7.99996C0.666656 7.99996 0.693323 10.5666 0.99999 11.72C1.16666 12.3533 1.66666 12.8533 2.29999 13.0266C3.43999 13.3333 8.02666 13.3333 8.02666 13.3333C8.02666 13.3333 12.6133 13.3333 13.76 13.0266C14.3933 12.86 14.8867 12.3533 15.0533 11.72C15.36 10.5666 15.3333 7.99996 15.3333 7.99996ZM6.66666 10.18V5.81996L10.3333 7.99996L6.66666 10.18Z" fill="white"/>
</svg>
